# xmcd
# 
# Track frame offsets:
#     150
#     18767
#     41605
#     62032
#     76530
#     93100
#     112727
#     129440
#     145312
#     163012
# 
# Disc length: 2476
# 
# Revision: 6
# Processed by: cddbd v1.5.2PL0 Copyright (c) Steve Scherf et al.
# Submitted via: fre:ac v1.0.31
# 
DISCID=6c09aa0a
DTITLE=The J. Geils Band - Ladies Invited The Original Album Series
DYEAR=1973
DGENRE=Rock/Pop
TTITLE0=Did You No Wrong
TTITLE1=I Can't Go On
TTITLE2=Lay Your Good Thing Down
TTITLE3=That's Why I'm Thinking of You
TTITLE4=No Doubt About It
TTITLE5=The Lady Makes Demands
TTITLE6=My Baby Don't Love Me
TTITLE7=Diddyboppin'
TTITLE8=Take a Chance (On Romance)
TTITLE9=Chimes
EXTD=
EXTT0=
EXTT1=
EXTT2=
EXTT3=
EXTT4=
EXTT5=
EXTT6=
EXTT7=
EXTT8=
EXTT9=
PLAYORDER=
